<?xml version="1.0" encoding="UTF-8"?>
<!-- Quad greeting scene: Morning (light). Generated by export.js from scenes.js. -->
<svg xmlns="http://www.w3.org/2000/svg" viewBox="0 0 1200 320" width="1200" height="320" preserveAspectRatio="xMaxYMax slice" aria-hidden="true">
  <defs><linearGradient id="gs-morning-light-sky" x1="0" y1="0" x2="1" y2="1"><stop offset="0" stop-color="#FFFFFF"/><stop offset="0.55" stop-color="#f3f2fe"/><stop offset="1" stop-color="#fbe3e2"/></linearGradient>
  <radialGradient id="gs-morning-light-glow" cx="1010" cy="190" r="300" gradientUnits="userSpaceOnUse"><stop offset="0" stop-color="#E5534B" stop-opacity="0.32"/><stop offset="0.45" stop-color="#E5534B" stop-opacity="0.1"/><stop offset="1" stop-color="#E5534B" stop-opacity="0"/></radialGradient></defs>
  <rect width="1200" height="320" fill="url(#gs-morning-light-sky)"/><rect width="1200" height="320" fill="url(#gs-morning-light-glow)"/>
  <circle cx="1010" cy="196" r="58" fill="#E5534B" opacity=".85"/>
  <g fill="none" stroke="#7D7A90" stroke-width="2.4" stroke-linecap="round" opacity="0.7"><path d="M842 92q9-9 18 0q9-9 18 0"/><path d="M892 64q7-7 14 0q7-7 14 0"/><path d="M790 120q6-6 12 0q6-6 12 0"/></g>
  <path d="M0 236C170 214 330 226 500 212S820 150 1000 168 1150 176 1200 170V320H0Z" fill="#8B7CF6" opacity="0.16"/>
  <path d="M0 262C210 240 400 258 610 240S960 206 1200 222V320H0Z" fill="#8B7CF6" opacity="0.3"/>
  <path d="M0 290C260 272 500 290 760 272S1060 252 1200 262V320H0Z" fill="#3B4AA8" opacity="0.42"/>
  <g fill="none" stroke="#FFFFFF" stroke-width="2" stroke-linecap="round" opacity="0.35"><path d="M560 300c80-10 170-12 250-6"/><path d="M860 290c80-9 170-11 260-6"/><path d="M700 312c90-8 190-9 280-4"/></g>
  <path d="M0 308C300 298 620 310 900 300S1120 292 1200 296V320H0Z" fill="#3B4AA8" opacity="0.6"/></svg>
