<?xml version="1.0" encoding="UTF-8"?>
<!-- Quad greeting scene: Night (light). Generated by export.js from scenes.js. -->
<svg xmlns="http://www.w3.org/2000/svg" viewBox="0 0 1200 320" width="1200" height="320" preserveAspectRatio="xMaxYMax slice" aria-hidden="true">
  <defs><linearGradient id="gs-night-light-sky" x1="0" y1="0" x2="1" y2=".6"><stop offset="0" stop-color="#FFFFFF"/><stop offset="0.38" stop-color="#eceafe"/><stop offset="0.7" stop-color="#adb3da"/><stop offset="1" stop-color="#50557e"/></linearGradient>
  <radialGradient id="gs-night-light-glow" cx="1010" cy="96" r="200" gradientUnits="userSpaceOnUse"><stop offset="0" stop-color="#8B7CF6" stop-opacity="0.4"/><stop offset="1" stop-color="#8B7CF6" stop-opacity="0"/></radialGradient>
  <mask id="gs-night-light-moon"><rect width="1200" height="320" fill="#fff"/><circle cx="1032" cy="80" r="40" fill="#000"/></mask></defs>
  <rect width="1200" height="320" fill="url(#gs-night-light-sky)"/><rect width="1200" height="320" fill="url(#gs-night-light-glow)"/>
  <g fill="#FFFFFF"><circle cx="640" cy="60" r="2" opacity="0.55"/><circle cx="700" cy="120" r="1.6" opacity="0.7000000000000001"/><circle cx="760" cy="40" r="2.4" opacity="0.8500000000000001"/><circle cx="820" cy="96" r="1.4" opacity="0.55"/><circle cx="880" cy="30" r="1.8" opacity="0.7000000000000001"/><circle cx="930" cy="140" r="1.4" opacity="0.8500000000000001"/><circle cx="1080" cy="52" r="2" opacity="0.55"/><circle cx="1140" cy="110" r="1.6" opacity="0.7000000000000001"/><circle cx="1170" cy="36" r="1.4" opacity="0.8500000000000001"/><circle cx="600" cy="150" r="1.4" opacity="0.55"/><circle cx="980" cy="70" r="1.4" opacity="0.7000000000000001"/><circle cx="1120" cy="170" r="1.2" opacity="0.8500000000000001"/></g>
  <circle cx="1010" cy="96" r="44" fill="#e5e2fd" mask="url(#gs-night-light-moon)"/>
  <path d="M0 236C170 214 330 226 500 212S820 150 1000 168 1150 176 1200 170V320H0Z" fill="#8B7CF6" opacity="0.22"/>
  <path d="M0 262C210 240 400 258 610 240S960 206 1200 222V320H0Z" fill="#3B4AA8" opacity="0.42"/>
  <path d="M0 290C260 272 500 290 760 272S1060 252 1200 262V320H0Z" fill="#1F2559" opacity="0.6"/>
  <g fill="none" stroke="#FFFFFF" stroke-width="2" stroke-linecap="round" opacity="0.35"><path d="M560 300c80-10 170-12 250-6"/><path d="M860 290c80-9 170-11 260-6"/><path d="M700 312c90-8 190-9 280-4"/></g>
  <path d="M0 308C300 298 620 310 900 300S1120 292 1200 296V320H0Z" fill="#1F2559" opacity="0.82"/></svg>
